<?xml version="1.0" encoding="UTF-8" standalone="no"?>
<svg
   xmlns:dc="http://purl.org/dc/elements/1.1/"
   xmlns:cc="http://creativecommons.org/ns#"
   xmlns:rdf="http://www.w3.org/1999/02/22-rdf-syntax-ns#"
   xmlns:svg="http://www.w3.org/2000/svg"
   xmlns="http://www.w3.org/2000/svg"
   viewBox="0 0 378.07999 378.07999"
   height="378.07999"
   width="378.07999"
   xml:space="preserve"
   id="svg2"
   version="1.1"><metadata
     id="metadata8"><rdf:RDF><cc:Work
         rdf:about=""><dc:format>image/svg+xml</dc:format><dc:type
           rdf:resource="http://purl.org/dc/dcmitype/StillImage" /></cc:Work></rdf:RDF></metadata><defs
     id="defs6"><clipPath
       id="clipPath22"
       clipPathUnits="userSpaceOnUse"><path
         style="clip-rule:evenodd"
         id="path20"
         d="M 4.225e-6,0 H 283.56 V 283.56 H 4.225e-6 Z" /></clipPath></defs><g
     transform="matrix(1.3333333,0,0,-1.3333333,0,378.08)"
     id="g10"><path
       id="path12"
       style="fill:#70ad47;fill-opacity:1;fill-rule:evenodd;stroke:none"
       d="M 47.04,271.2 H 173.92 L 236.4,208.72 V 12.48 H 47.04 Z" /><path
       id="path14"
       style="fill:#ffffff;fill-opacity:1;fill-rule:evenodd;stroke:none"
       d="m 141.99,229.56 c -45.334,0 -82.18,-36.81 -82.18,-82.09 0,-19.33 6.627,-37.07 17.761,-51.103 4.506,-5.825 6.892,-14.828 2.915,-20.124 C 77.571,72.271 74.125,69.888 70.678,69.358 59.28,67.769 74.92,54 101.69,64.592 c 6.89,2.648 17.23,3.707 24.39,2.118 5.3,-1.059 10.6,-1.589 15.91,-1.589 45.32,0 82.17,36.809 82.17,82.349 0,45.28 -36.85,82.09 -82.17,82.09 z" /><g
       id="g16"><g
         clip-path="url(#clipPath22)"
         id="g18"><text
           id="text26"
           style="font-variant:normal;font-weight:normal;font-size:115.01000214px;font-family:Calibri;-inkscape-font-specification:Calibri;writing-mode:lr-tb;fill:#000000;fill-opacity:1;fill-rule:nonzero;stroke:none"
           transform="matrix(1,0,0,-1,105.91,103.1)"><tspan
             id="tspan24"
             y="0"
             x="0">H</tspan></text>
</g></g></g></svg>